Coordinates
version=1
nRows=37
nColumns=38
inDegrees=no

Units are S.I. units (second, meters, Newtons, ...)
If the header above contains a line with 'inDegrees', this indicates whether rotational values are in degrees (yes) or radians (no).

endheader
time	pelvis_tilt	pelvis_list	pelvis_rotation	pelvis_tx	pelvis_ty	pelvis_tz	hip_flexion_r	hip_adduction_r	hip_rotation_r	knee_angle_r	ankle_angle_r	subtalar_angle_r	mtp_angle_r	hip_flexion_l	hip_adduction_l	hip_rotation_l	knee_angle_l	ankle_angle_l	subtalar_angle_l	mtp_angle_l	lumbar_extension	lumbar_bending	lumbar_rotation	arm_flex_r	arm_add_r	arm_rot_r	elbow_flex_r	pro_sup_r	wrist_flex_r	wrist_dev_r	arm_flex_l	arm_add_l	arm_rot_l	elbow_flex_l	pro_sup_l	wrist_flex_l	wrist_dev_l
1.11	-0.314357	1.48591	-1.3021	0.681718	0.0464763	0.962089	-0.0512786	0.0649056	-0.190064	0.26892	0.135816	0	0	0.461087	-0.158562	-0.121975	1.11979	0.058021	0	0	-0.142097	0.0584459	0.0299249	-0.168272	-0.200201	0.142192	0.557056	1.07722	0	0	-0.208697	-0.209823	0.379945	0.693317	0.934887	0	0
1.12	-0.290931	1.4861	-1.32951	0.681058	0.036868	0.961599	-0.0661281	0.0634001	-0.183954	0.263411	0.142484	0	0	0.468693	-0.159186	-0.133989	1.07926	0.0734084	0	0	-0.14579	0.0556105	0.0325331	-0.157327	-0.201585	0.147266	0.551673	1.08111	0	0	-0.214766	-0.207513	0.383464	0.693172	0.932979	0	0
1.13	-0.269866	1.48688	-1.35379	0.680572	0.0272226	0.960954	-0.0796083	0.0614389	-0.179628	0.259174	0.150052	0	0	0.475624	-0.159162	-0.145945	1.0362	0.0874215	0	0	-0.14864	0.0529186	0.0347177	-0.147134	-0.202748	0.150932	0.547353	1.08467	0	0	-0.220376	-0.204877	0.387052	0.692908	0.929789	0	0
1.14	-0.245573	1.48763	-1.38097	0.680169	0.0175483	0.96024	-0.0928239	0.0589153	-0.175717	0.25559	0.15828	0	0	0.480689	-0.158355	-0.158459	0.990172	0.0992416	0	0	-0.151518	0.0498748	0.0367241	-0.136898	-0.203501	0.154159	0.542689	1.08872	0	0	-0.225259	-0.202521	0.393954	0.69116	0.926832	0	0
1.15	-0.223237	1.48844	-1.40568	0.679842	0.00783531	0.959426	-0.105881	0.0564586	-0.172424	0.252134	0.166283	0	0	0.484434	-0.157254	-0.171478	0.941681	0.109249	0	0	-0.15423	0.0470092	0.0385622	-0.126918	-0.20381	0.156278	0.53805	1.09241	0	0	-0.229531	-0.200289	0.402395	0.688771	0.923678	0	0
1.16	-0.204812	1.48967	-1.4263	0.679559	-0.00188783	0.958475	-0.118272	0.054206	-0.169711	0.24876	0.174203	0	0	0.487422	-0.156269	-0.185429	0.891343	0.119222	0	0	-0.156447	0.0444094	0.0406916	-0.117412	-0.203746	0.156966	0.534036	1.09582	0	0	-0.233152	-0.198028	0.411331	0.685904	0.920285	0	0
1.17	-0.189167	1.49109	-1.44394	0.679387	-0.0116778	0.957424	-0.130476	0.0519084	-0.167863	0.245483	0.182	0	0	0.489065	-0.154939	-0.199838	0.838903	0.129353	0	0	-0.158204	0.0421383	0.0429698	-0.108774	-0.203539	0.156043	0.531223	1.09945	0	0	-0.236309	-0.195563	0.420562	0.682513	0.916636	0	0
1.18	-0.171059	1.4923	-1.4641	0.679274	-0.0216522	0.956336	-0.143337	0.0493038	-0.166416	0.24183	0.189475	0	0	0.488576	-0.152961	-0.215234	0.784451	0.139537	0	0	-0.15983	0.039702	0.045393	-0.100816	-0.20299	0.154058	0.528906	1.10324	0	0	-0.239476	-0.192932	0.429442	0.678859	0.913064	0	0
1.19	-0.151117	1.4936	-1.48655	0.679169	-0.0317883	0.955183	-0.156477	0.0464281	-0.164942	0.237763	0.196858	0	0	0.486376	-0.150575	-0.232001	0.728377	0.149011	0	0	-0.161094	0.037037	0.0482601	-0.0932946	-0.20227	0.151932	0.526717	1.10645	0	0	-0.242801	-0.190013	0.437215	0.674734	0.910872	0	0
1.2	-0.127168	1.49459	-1.51286	0.679162	-0.0420194	0.953977	-0.17026	0.0431237	-0.164028	0.233302	0.204004	0	0	0.482258	-0.147064	-0.250274	0.670396	0.156899	0	0	-0.162679	0.034117	0.0512707	-0.0864395	-0.201231	0.14803	0.525308	1.10986	0	0	-0.245792	-0.18706	0.444483	0.670702	0.908799	0	0
1.21	-0.0887282	1.49428	-1.55385	0.679253	-0.0523907	0.95284	-0.185829	0.0384388	-0.163257	0.228384	0.210773	0	0	0.474331	-0.141483	-0.270273	0.609385	0.162233	0	0	-0.165491	0.0299971	0.0546006	-0.0800326	-0.199533	0.141563	0.524255	1.1147	0	0	-0.24834	-0.184327	0.45188	0.666584	0.905825	0	0
1.22	-0.0598164	1.49501	-1.58556	0.679395	-0.0629018	0.951502	-0.199704	0.0342215	-0.162995	0.224485	0.21743	0	0	0.467143	-0.136301	-0.289463	0.549588	0.166787	0	0	-0.166563	0.0266486	0.0581835	-0.0745538	-0.198002	0.135016	0.523969	1.12041	0	0	-0.251397	-0.18118	0.457349	0.662431	0.901999	0	0
1.23	-0.0282847	1.49597	-1.62034	0.679665	-0.0735884	0.950075	-0.213042	0.0294354	-0.162711	0.221325	0.224031	0	0	0.458628	-0.129682	-0.308251	0.488297	0.169656	0	0	-0.167008	0.0232937	0.0619936	-0.0696623	-0.196619	0.12853	0.524264	1.1259	0	0	-0.254729	-0.177402	0.461007	0.658053	0.897093	0	0
1.24	0.0142766	1.49636	-1.66632	0.680097	-0.0844731	0.948614	-0.226479	0.0232797	-0.16296	0.219222	0.230835	0	0	0.447695	-0.120139	-0.324748	0.424547	0.170755	0	0	-0.16761	0.019217	0.0656332	-0.0651625	-0.195112	0.121309	0.524834	1.13258	0	0	-0.258334	-0.173636	0.464593	0.654127	0.89075	0	0
1.25	0.0512437	1.49746	-1.70635	0.680648	-0.0955219	0.946977	-0.238646	0.0175285	-0.16312	0.21809	0.237272	0	0	0.437249	-0.109721	-0.334703	0.362208	0.171923	0	0	-0.166876	0.0158816	0.0687885	-0.0614936	-0.193816	0.114614	0.526184	1.13798	0	0	-0.262485	-0.169972	0.468828	0.650853	0.887238	0	0
1.26	0.621292	1.51451	-2.2905	0.680411	-0.104911	0.940479	-0.108931	-0.0691653	-0.333223	0.451533	0.327969	0	0	0.461678	-0.0773462	-0.348981	0.308744	0.171059	0	0	-0.134754	-0.0160611	0.0818066	-0.0624177	-0.190345	0.111946	0.531245	1.14084	0	0	-0.272893	-0.172789	0.470501	0.658303	0.884753	0	0
1.27	0.13598	1.49853	-1.79767	0.681989	-0.118053	0.943547	-0.258973	0.00348977	-0.165684	0.225858	0.251644	0	0	0.412057	-0.084564	-0.325343	0.239239	0.169748	0	0	-0.165504	0.00838469	0.0754306	-0.0556344	-0.190849	0.100127	0.529704	1.15225	0	0	-0.2709	-0.16277	0.474889	0.645182	0.879377	0	0
1.28	0.179393	1.49912	-1.84522	0.682695	-0.129549	0.94171	-0.2647	-0.00496216	-0.169288	0.238385	0.260816	0	0	0.399288	-0.072556	-0.306703	0.183381	0.164366	0	0	-0.164016	0.0045118	0.0789748	-0.0533622	-0.189781	0.0962629	0.532206	1.15518	0	0	-0.275855	-0.159184	0.475867	0.643111	0.877128	0	0
1.29	0.215994	1.49912	-1.88657	0.683342	-0.141243	0.93987	-0.270371	-0.0132518	-0.170733	0.252299	0.269052	0	0	0.387164	-0.0629533	-0.283475	0.135905	0.157085	0	0	-0.162749	0.000854035	0.0830264	-0.0518513	-0.188855	0.0935794	0.535479	1.1564	0	0	-0.281128	-0.155982	0.476311	0.641966	0.875509	0	0
1.3	0.242302	1.49882	-1.91811	0.683915	-0.153135	0.938062	-0.275933	-0.0210413	-0.170056	0.267421	0.275925	0	0	0.377905	-0.0568362	-0.261616	0.101987	0.150918	0	0	-0.161482	-0.00233308	0.0876134	-0.0508316	-0.187596	0.0902773	0.538522	1.15784	0	0	-0.286559	-0.153294	0.476861	0.641221	0.874784	0	0
1.31	0.260682	1.49887	-1.9417	0.684442	-0.165195	0.936266	-0.280416	-0.0282669	-0.168461	0.284219	0.281318	0	0	0.374915	-0.0546023	-0.246866	0.0878296	0.149851	0	0	-0.159625	-0.00497072	0.0923671	-0.0505275	-0.186161	0.0874838	0.541547	1.15845	0	0	-0.292151	-0.151109	0.477102	0.640886	0.874755	0	0
1.32	0.261066	1.49759	-1.94838	0.684445	-0.177397	0.934742	-0.286415	-0.0343383	-0.164417	0.301177	0.284291	0	0	0.368471	-0.059282	-0.220381	0.0768952	0.143795	0	0	-0.15957	-0.00799699	0.098476	-0.0502042	-0.183057	0.0828644	0.543556	1.16085	0	0	-0.297784	-0.150615	0.476774	0.643086	0.872614	0	0
1.33	0.310135	1.49625	-2.00108	0.685525	-0.189904	0.933115	-0.290175	-0.0457152	-0.165452	0.320762	0.287272	0	0	0.379288	-0.0529552	-0.232004	0.105146	0.15223	0	0	-0.157312	-0.0128591	0.101823	-0.0517546	-0.181905	0.0805362	0.547173	1.1612	0	0	-0.30336	-0.148866	0.476476	0.643926	0.871951	0	0
1.34	0.349089	1.49627	-2.04496	0.686093	-0.202588	0.931485	-0.29133	-0.0554664	-0.162795	0.342674	0.28868	0	0	0.390402	-0.0542836	-0.233489	0.137125	0.156711	0	0	-0.153092	-0.0173646	0.106978	-0.0543875	-0.179524	0.0773535	0.550253	1.16167	0	0	-0.309448	-0.148924	0.476507	0.645991	0.870899	0	0
1.35	0.39381	1.49674	-2.0952	0.686631	-0.215613	0.929883	-0.290725	-0.0656367	-0.158679	0.366339	0.288089	0	0	0.402215	-0.0561035	-0.234415	0.174705	0.160346	0	0	-0.14723	-0.021984	0.11264	-0.0582111	-0.177098	0.0743413	0.553151	1.16268	0	0	-0.31652	-0.149562	0.476228	0.648681	0.869602	0	0
1.36	0.445658	1.49768	-2.15317	0.687186	-0.22901	0.928287	-0.28815	-0.0763641	-0.153449	0.392091	0.285496	0	0	0.414739	-0.0580375	-0.236914	0.217314	0.164491	0	0	-0.139587	-0.0264977	0.118782	-0.0635356	-0.174927	0.0717472	0.55649	1.1641	0	0	-0.324755	-0.150154	0.474169	0.652444	0.867704	0	0
1.37	0.504216	1.49945	-2.21886	0.68774	-0.2428	0.926647	-0.28296	-0.0873081	-0.146384	0.420338	0.280618	0	0	0.427887	-0.0604874	-0.242268	0.263232	0.170076	0	0	-0.129581	-0.030399	0.126242	-0.0710011	-0.173136	0.0687268	0.560776	1.16617	0	0	-0.334148	-0.150653	0.470837	0.656676	0.86559	0	0
1.38	0.576215	1.50282	-2.29925	0.688309	-0.256914	0.924856	-0.273252	-0.0981998	-0.136783	0.452622	0.27348	0	0	0.441883	-0.0637501	-0.250212	0.308457	0.176428	0	0	-0.116207	-0.0332273	0.135537	-0.0809909	-0.171894	0.0648601	0.566319	1.16985	0	0	-0.344372	-0.151044	0.467135	0.660764	0.862836	0	0
1.39	0.648787	1.50415	-2.38	0.689006	-0.271232	0.923278	-0.263611	-0.110332	-0.127502	0.486989	0.262319	0	0	0.449475	-0.0636385	-0.254547	0.341678	0.17196	0	0	-0.103953	-0.0367839	0.144702	-0.0912768	-0.170961	0.0620594	0.571126	1.173	0	0	-0.354264	-0.151825	0.463637	0.664745	0.860207	0	0
1.4	0.726253	1.50405	-2.46498	0.689842	-0.285481	0.921912	-0.251366	-0.123681	-0.118345	0.526012	0.246459	0	0	0.454367	-0.0615253	-0.258931	0.366532	0.150944	0	0	-0.092715	-0.0413353	0.152079	-0.100288	-0.170014	0.0608042	0.574338	1.17592	0	0	-0.364109	-0.152287	0.457332	0.668692	0.85768	0	0
1.41	0.795474	1.50131	-2.53899	0.690981	-0.299411	0.921033	-0.237387	-0.137956	-0.110196	0.569835	0.224506	0	0	0.458217	-0.0571669	-0.261581	0.389782	0.120856	0	0	-0.0848345	-0.047783	0.155913	-0.106696	-0.168523	0.0603778	0.574724	1.17856	0	0	-0.372316	-0.152362	0.44797	0.671373	0.857306	0	0
1.42	0.860253	1.49589	-2.60475	0.692384	-0.312875	0.920719	-0.220442	-0.152852	-0.103112	0.619328	0.196151	0	0	0.46458	-0.0505744	-0.260004	0.421187	0.100843	0	0	-0.0803306	-0.0569799	0.156283	-0.111011	-0.165782	0.0590211	0.572905	1.18154	0	0	-0.37748	-0.153644	0.439414	0.673039	0.85711	0	0
1.43	0.916879	1.48873	-2.65926	0.69389	-0.326021	0.920867	-0.199987	-0.167275	-0.0953687	0.674373	0.160763	0	0	0.473188	-0.0423439	-0.255502	0.460427	0.0965215	0	0	-0.0779302	-0.0681546	0.153834	-0.113959	-0.161888	0.0573995	0.569509	1.18448	0	0	-0.380493	-0.156946	0.433642	0.675725	0.852714	0	0
1.44	0.960859	1.48163	-2.69957	0.695304	-0.33904	0.92126	-0.175747	-0.179442	-0.0855717	0.733928	0.119113	0	0	0.482273	-0.0343616	-0.249941	0.501867	0.0971316	0	0	-0.07616	-0.0792125	0.150199	-0.116889	-0.157759	0.0571348	0.566005	1.18613	0	0	-0.382539	-0.16241	0.431488	0.679683	0.844057	0	0
1.45	0.985634	1.4743	-2.72092	0.696496	-0.352018	0.921861	-0.149529	-0.189722	-0.0734445	0.795868	0.0724546	0	0	0.486931	-0.0265062	-0.245887	0.53678	0.0935053	0	0	-0.0756605	-0.0899073	0.146963	-0.120417	-0.153966	0.0586266	0.564082	1.18559	0	0	-0.384125	-0.168925	0.429793	0.684318	0.836967	0	0
1.46	1.01493	1.46785	-2.74748	0.697548	-0.364911	0.922401	-0.118804	-0.198172	-0.0590281	0.859801	0.0212531	0	0	0.488415	-0.0188775	-0.244953	0.563198	0.0863454	0	0	-0.0736923	-0.0998028	0.144236	-0.12467	-0.1508	0.061619	0.563507	1.18405	0	0	-0.385654	-0.175487	0.428055	0.689182	0.829421	0	0
1.47	1.05548	1.46286	-2.78512	0.698624	-0.377553	0.922765	-0.0835235	-0.20471	-0.0446101	0.924078	-0.0329245	0	0	0.487785	-0.0113208	-0.246479	0.581293	0.0785697	0	0	-0.0696496	-0.108403	0.141117	-0.129511	-0.148562	0.0662892	0.564459	1.18173	0	0	-0.386777	-0.181993	0.427756	0.69296	0.822871	0	0
